<?xml version="1.0" standalone="no"?>
<!DOCTYPE svg PUBLIC "-//W3C//DTD SVG 20010904//EN"
 "http://www.w3.org/TR/2001/REC-SVG-20010904/DTD/svg10.dtd">
<svg version="1.0" xmlns="http://www.w3.org/2000/svg"
 width="1024.000000pt" height="1024.000000pt" viewBox="0 0 1024.000000 1024.000000"
 preserveAspectRatio="xMidYMid meet">
<metadata>
Created by potrace 1.14, written by Peter Selinger 2001-2017
</metadata>
<g transform="translate(0.000000,1024.000000) scale(0.100000,-0.100000)"
fill="#000000" stroke="none">
<path d="M4870 8590 c-114 -15 -156 -21 -200 -32 -25 -5 -58 -12 -75 -15 -165
-28 -475 -154 -672 -274 -217 -132 -464 -351 -603 -535 -25 -32 -48 -60 -52
-62 -5 -2 -8 -10 -8 -17 0 -7 -4 -15 -9 -17 -14 -5 -100 -145 -162 -263 -87
-165 -160 -363 -204 -550 -14 -61 -33 -182 -43 -270 -13 -127 -7 -432 12 -555
97 -642 447 -1197 983 -1562 176 -119 373 -213 593 -284 83 -27 270 -70 340
-79 25 -3 77 -10 115 -14 69 -9 396 -7 465 2 19 3 55 8 80 12 25 3 56 8 70 10
49 6 209 45 291 71 334 105 640 288 894 534 98 95 182 190 250 284 11 16 25
33 30 40 25 27 127 199 173 291 79 158 147 340 177 475 53 240 60 302 60 545
0 167 -6 274 -19 340 -2 11 -7 40 -11 65 -10 65 -71 296 -95 360 -12 30 -27
71 -35 92 -7 20 -35 80 -61 135 -314 651 -934 1121 -1644 1247 -47 8 -101 18
-120 21 -52 10 -456 13 -520 5z"/>
<path d="M2449 6737 c-67 -44 -67 -45 -65 -465 l1 -377 24 -34 c62 -87 192
-78 239 16 18 35 19 63 18 408 -1 409 -1 409 -65 452 -45 30 -107 31 -152 0z"/>
<path d="M7605 6750 c-29 -12 -75 -63 -81 -91 -3 -13 -5 -187 -6 -386 0 -356
0 -362 22 -401 28 -50 59 -67 124 -67 58 0 94 21 122 73 16 29 17 68 17 400 1
348 0 371 -19 407 -32 61 -115 92 -179 65z"/>
<path d="M3637 4004 c-1 -1 -29 -5 -62 -8 -526 -57 -919 -317 -1134 -751 -50
-100 -100 -226 -117 -295 -2 -8 -11 -44 -19 -80 -20 -81 -20 -80 -34 -165 -6
-38 -13 -86 -17 -105 -10 -61 -12 -461 -2 -545 6 -47 18 -93 29 -112 28 -45
87 -72 141 -64 45 7 5304 5 5348 -1 58 -9 131 38 149 96 30 94 32 424 5 731
-22 246 -99 475 -216 642 -91 130 -264 312 -354 373 -27 19 -51 37 -54 41 -15
22 -233 124 -336 158 -184 60 -338 85 -534 86 l-115 0 -150 -96 c-201 -128
-268 -166 -415 -237 -254 -123 -420 -166 -645 -166 -182 -1 -252 10 -420 62
-183 57 -469 206 -705 366 -108 74 -121 78 -236 74 -58 -2 -106 -4 -107 -4z"/>
</g>
</svg>
