<svg xmlns="http://www.w3.org/2000/svg" version="1.1" width="96" height="96" viewbox="0 0 96 96"><rect x="0" y="0" width="96" height="96" fill="#FFFFFF"></rect><g transform="translate(36, 60.029454545454556)"><path d="M1.3-19.87L1.3-19.87Q0.82-19.87 0.82-20.78L0.82-20.78Q0.82-20.98 0.82-21.1 0.82-21.22 0.84-21.31 0.86-21.41 0.91-21.48 0.96-21.55 0.96-21.6 0.96-21.65 1.08-21.7 1.2-21.74 1.25-21.74 1.3-21.74 1.46-21.79 1.63-21.84 1.73-21.89L1.73-21.89Q5.42-22.85 8.11-25.75 10.8-28.66 11.42-32.54L11.42-32.54Q11.47-33.07 11.76-33.22L11.76-33.22Q12.38-33.55 12.53-32.83L12.53-32.83Q12.53-32.78 12.55-32.64 12.58-32.5 12.62-32.33 12.67-32.16 12.67-32.06L12.67-32.06Q13.49-28.32 16.08-25.56 18.67-22.8 22.27-21.89L22.27-21.89Q22.37-21.84 22.54-21.79 22.7-21.74 22.75-21.74 22.8-21.74 22.92-21.7 23.04-21.65 23.04-21.6 23.04-21.55 23.09-21.48 23.14-21.41 23.16-21.31 23.18-21.22 23.18-21.1 23.18-20.98 23.18-20.78L23.18-20.78Q23.18-19.82 22.7-19.82L22.7-19.82Q22.42-19.82 21.98-19.97L21.98-19.97Q16.42-21.5 13.3-26.16L13.3-26.16 12.96-26.64 12.96 8.59Q12.62 9.26 12 9.26 11.38 9.26 11.04 8.59L11.04 8.59 11.04-26.64 10.7-26.16Q8.5-22.8 4.75-20.98L4.75-20.98Q2.35-19.87 1.3-19.87Z" fill="#404040"></path></g></svg>